<svg xmlns="http://www.w3.org/2000/svg" viewBox="0 0 37.73 56"><path d="M18,0a9,9,0,0,1,5.25,16.27,10.76,10.76,0,0,1,4,2.16l.29.26.77.71,8.5,8.49a3,3,0,0,1-4.1,4.38l-.14-.14L26,25.53v27a3.5,3.5,0,0,1-7,.19V41a1,1,0,0,0-2-.12V52.5a3.5,3.5,0,0,1-7,.19V23H8.5A8.51,8.51,0,0,1,0,14.76V8a3,3,0,0,1,6-.18V13.5A2.49,2.49,0,0,0,8.34,16h4A8.92,8.92,0,0,1,9,9,9,9,0,0,1,18,0ZM3,6A2,2,0,0,0,1,7.85V14.5A7.51,7.51,0,0,0,8.26,22H10.5a.5.5,0,0,1,.49.41V52.5a2.5,2.5,0,0,0,5,.16V41a2,2,0,0,1,4-.15V52.5a2.5,2.5,0,0,0,5,.16V24.5a.28.28,0,0,1,0-.09.49.49,0,0,1,.14-.44.48.48,0,0,1,.63-.06l.07.06,7.46,7.46a2,2,0,0,0,2.95-2.7l-.12-.13-8.48-8.48-.76-.7a9.72,9.72,0,0,0-4.63-2.36L22,17a9.11,9.11,0,0,1-8,0H8.5A3.49,3.49,0,0,1,5,13.69V8A2,2,0,0,0,3,6ZM18,1a8,8,0,1,0,8.05,8A8,8,0,0,0,18,1Z" fill="#6b63ff"/></svg>