<svg xmlns="http://www.w3.org/2000/svg" viewBox="0 0 49.61 72.34"><path d="M21.23,3.32c2.75,3.73,5.18,7.85,2.77,16-1.51,5.15.22,8.17,5.23,8.88l12,1.71c6,.91,8.13,4.07,8.36,7.14s-1.66,6.09-4.43,6.75c-5,1.18-13.38.52-16.71-.38a3.69,3.69,0,0,1-2.95-4.11c.19-1.69,1.34-3.21,3.92-3.21l9.34-.36a.94.94,0,1,0,0-1.86l-9.34,0a5.92,5.92,0,0,0-6.11,5.16,6.8,6.8,0,0,0,.25,3.08,4,4,0,0,1-.43,4.56c-2.49,2.4-5.59,2.91-11.09,2.1-1.55-.23-1.89,1.53-.41,2,2.46.85,6.72,1.06,8.72.12,2.35-1.1,1.67.62,3.57,2.22.94.8.95,1.05,0,2.1a5.84,5.84,0,0,0,.91,8.34c.94.67.89.75.21,1.66a4.32,4.32,0,0,0-.8,2.38c-.07,1.64-.27,1.94-1.3,1.92-5.56-.13-10.88-1-14.92-3.28C3.46,63.68.35,59.16,0,50.75-.43,38.42,3.66,32.51,8.44,27.2s5.31-10.42,3.86-14.84c-2-6.18-2.36-8.92.44-11.37S19.54,1.06,21.23,3.32Z" style="fill:#fff"/><path d="M48.89,47.22a6.16,6.16,0,0,1-4.41,6.14c-5,1.36-12.81.86-16.73-.35a3.76,3.76,0,0,1-2.88-4.16A3,3,0,0,1,26,46.64a3.76,3.76,0,0,1,3-.8c4.21.76,11.56,1.68,16.69.14C48.22,45.22,48.74,45.45,48.89,47.22Z" style="fill:#fff"/><path d="M48.89,56.86c0,2.84-2.12,5.63-4.41,6.16-5,1.16-13.38.5-16.73-.35a3.61,3.61,0,0,1-2.88-4.17,3.53,3.53,0,0,1,4-3c4.27.65,11.22,1.46,16.07,0C47.73,54.69,48.85,53.6,48.89,56.86Z" style="fill:#fff"/><path d="M46.26,68.4A6.79,6.79,0,0,1,42,71.77a33.31,33.31,0,0,1-13.09-.18A3.12,3.12,0,0,1,26.47,68a2.89,2.89,0,0,1,3.3-2.66c4.32.36,10.59,1,15.2-.12C47.29,64.62,47.06,66.93,46.26,68.4Z" style="fill:#fff"/></svg>