<svg xmlns="http://www.w3.org/2000/svg" viewBox="0 0 60.01 54.01"><path d="M53.88,33.27a5,5,0,0,0,4.58-4.56L60,10.27A3,3,0,0,0,57.28,7H11.43L10,.77A1,1,0,0,0,9,0H1A1,1,0,0,0,1,2H8.21l9.47,40.47A6,6,0,1,0,25.91,49H46.09a6,6,0,1,0,0-2H25.91A6,6,0,0,0,20,42h-.37l-.74-3.17ZM57,9a1,1,0,0,1,1,1.08L56.47,28.54a3,3,0,0,1-2.83,2.75L18.43,36.9,11.9,9Z" fill="#6b63ff"/><path d="M47.42,28h.08a1,1,0,0,0,1-.92l1-12a1,1,0,1,0-2-.16h0l-1,12A1,1,0,0,0,47.41,28Z" fill="#6b63ff"/><path d="M39.42,28h.08a1,1,0,0,0,1-.92l1-12a1,1,0,1,0-2-.16h0l-1,12A1,1,0,0,0,39.41,28Z" fill="#6b63ff"/><path d="M31.42,28h.08a1,1,0,0,0,1-.92l1-12a1,1,0,1,0-2-.16h0l-1,12A1,1,0,0,0,31.41,28Z" fill="#6b63ff"/><path d="M23.42,28h.08a1,1,0,0,0,1-.92l1-12a1,1,0,1,0-2-.16h0l-1,12A1,1,0,0,0,23.41,28Z" fill="#6b63ff"/></svg>